<svg width="101" height="100" viewBox="0 0 101 100" fill="none" xmlns="http://www.w3.org/2000/svg">
<g filter="url(#filter0_d_212_2036)">
<rect x="24.5" y="20" width="52" height="52" rx="26" fill="url(#paint0_linear_212_2036)" shape-rendering="crispEdges"/>
<path d="M50.5 38.125C52.1898 38.125 53.5625 36.7523 53.5625 35.0625C53.5625 33.3727 52.1898 32 50.5 32C48.8102 32 47.4375 33.3727 47.4375 35.0625C47.4375 36.7523 48.8102 38.125 50.5 38.125Z" fill="white"/>
<path d="M60.1251 38.1685L60.0978 38.174L60.0759 38.1794C60.0212 38.1958 59.9665 38.2122 59.9118 38.2287C58.8946 38.5294 53.9563 39.9185 50.4728 39.9185C47.2407 39.9185 42.7454 38.7154 41.3071 38.3052C41.1649 38.2505 41.0173 38.2013 40.8696 38.163C39.8306 37.8896 39.1196 38.9451 39.1196 39.9076C39.1196 40.8646 39.9782 41.3185 40.8423 41.6466V41.663L46.0485 43.2872C46.579 43.4896 46.7212 43.6974 46.7923 43.8779C47.0165 44.4576 46.836 45.606 46.7759 46.0052L46.4587 48.4662L44.7032 58.1076C44.6978 58.1349 44.6923 58.1622 44.6868 58.1896L44.6759 58.2607C44.5501 59.1412 45.1954 59.9997 46.4259 59.9997C47.4978 59.9997 47.9735 59.2615 48.1759 58.2552C48.1759 58.2552 49.7071 49.6365 50.4728 49.6365C51.2384 49.6365 52.8134 58.2552 52.8134 58.2552C53.0212 59.2615 53.4915 59.9997 54.5634 59.9997C55.7938 59.9997 56.4446 59.1412 56.3134 58.2552C56.3024 58.1787 56.286 58.1076 56.2696 58.031L54.4923 48.4771L54.1751 46.0162C53.9454 44.5833 54.1313 44.1076 54.1915 43.9982C54.1915 43.9982 54.197 43.9927 54.197 43.9872C54.2571 43.8779 54.5251 43.6318 55.154 43.3966L60.0376 41.6904C60.0649 41.6849 60.0978 41.674 60.1251 41.663C61.0001 41.3349 61.8751 40.881 61.8751 39.9185C61.8751 38.956 61.1642 37.8951 60.1251 38.1685Z" fill="white"/>
</g>
<defs>
<filter id="filter0_d_212_2036" x="0.5" y="0" width="100" height="100" filterUnits="userSpaceOnUse" color-interpolation-filters="sRGB">
<feFlood flood-opacity="0" result="BackgroundImageFix"/>
<feColorMatrix in="SourceAlpha" type="matrix" values="0 0 0 0 0 0 0 0 0 0 0 0 0 0 0 0 0 0 127 0" result="hardAlpha"/>
<feOffset dy="4"/>
<feGaussianBlur stdDeviation="12"/>
<feComposite in2="hardAlpha" operator="out"/>
<feColorMatrix type="matrix" values="0 0 0 0 0.862745 0 0 0 0 0.203922 0 0 0 0 0.619608 0 0 0 0.5 0"/>
<feBlend mode="normal" in2="BackgroundImageFix" result="effect1_dropShadow_212_2036"/>
<feBlend mode="normal" in="SourceGraphic" in2="effect1_dropShadow_212_2036" result="shape"/>
</filter>
<linearGradient id="paint0_linear_212_2036" x1="76.5" y1="46" x2="24.5" y2="46" gradientUnits="userSpaceOnUse">
<stop stop-color="#DC349E"/>
<stop offset="1" stop-color="#31D0D0"/>
</linearGradient>
</defs>
</svg>
