<svg width="101" height="100" viewBox="0 0 101 100" fill="none" xmlns="http://www.w3.org/2000/svg">
<g filter="url(#filter0_d_212_2037)">
<rect x="24.5" y="20" width="52" height="52" rx="26" fill="url(#paint0_linear_212_2037)" shape-rendering="crispEdges"/>
<g clip-path="url(#clip0_212_2037)">
<path d="M49.6562 43.9023V55.599H45.2399C43.8838 55.599 42.7806 56.7022 42.7806 58.0583V58.3608H41.084V60.0004H59.884V58.3608H58.1091V58.0583C58.1091 56.7022 57.0059 55.599 55.6498 55.599H51.2958V43.9152C51.0445 43.9436 50.7894 43.9587 50.5306 43.9587C50.2344 43.9587 49.9425 43.9394 49.6562 43.9023Z" fill="white"/>
<path d="M42.2778 39.1397V37.7734H40.6383V39.1397H39.2178V40.7792H40.2141L36.5164 48.5399V48.7252C36.5164 51.4287 38.7158 53.6282 41.4194 53.6282C44.123 53.6282 46.3224 51.4287 46.3224 48.7252V48.5474L42.7866 40.7793H44.793C44.4751 40.2736 44.2223 39.7232 44.0462 39.1398L42.2778 39.1397ZM38.3518 48.4948L41.4957 41.9009L44.5448 48.4948H38.3518Z" fill="white"/>
<path d="M60.948 40.7797H61.734V39.1402H60.4795V37.7559H58.8399V39.1402H57.0149C56.8388 39.7237 56.5859 40.2741 56.2681 40.7797H58.3754L54.6777 48.5404V48.7257C54.6777 51.4293 56.8772 53.6287 59.5808 53.6287C62.2843 53.6287 64.4838 51.4293 64.4838 48.7257V48.5479L60.948 40.7797ZM56.5407 48.5731L59.6571 41.9014L62.6759 48.5659L56.5407 48.5731Z" fill="white"/>
<path d="M55.7168 37.1862C55.7168 34.3265 53.3903 32 50.5307 32C47.671 32 45.3445 34.3265 45.3445 37.1862C45.3445 40.0458 47.671 42.3724 50.5307 42.3724C53.3903 42.3724 55.7168 40.0458 55.7168 37.1862ZM51.0285 39.3683V40.0431H50.1714V39.3987C49.5636 39.3622 48.974 39.1981 48.6093 38.9732L49.0713 37.9277C49.4725 38.1648 50.0073 38.3167 50.4754 38.3167C50.8826 38.3167 51.0285 38.2316 51.0285 38.0857C51.0285 37.5508 48.6762 37.9824 48.6762 36.3959C48.6762 35.7091 49.1746 35.1317 50.1714 34.9918V34.3294H51.0285V34.9798C51.4783 35.0223 51.9159 35.1378 52.2624 35.3323L51.8309 36.3717C51.4114 36.1589 51.0163 36.0556 50.6456 36.0556C50.2261 36.0556 50.0925 36.1771 50.0925 36.323C50.0925 36.8336 52.4448 36.4081 52.4448 37.9764C52.4448 38.6328 51.9706 39.2042 51.0285 39.3683Z" fill="white"/>
</g>
</g>
<defs>
<filter id="filter0_d_212_2037" x="0.5" y="0" width="100" height="100" filterUnits="userSpaceOnUse" color-interpolation-filters="sRGB">
<feFlood flood-opacity="0" result="BackgroundImageFix"/>
<feColorMatrix in="SourceAlpha" type="matrix" values="0 0 0 0 0 0 0 0 0 0 0 0 0 0 0 0 0 0 127 0" result="hardAlpha"/>
<feOffset dy="4"/>
<feGaussianBlur stdDeviation="12"/>
<feComposite in2="hardAlpha" operator="out"/>
<feColorMatrix type="matrix" values="0 0 0 0 0.862745 0 0 0 0 0.203922 0 0 0 0 0.619608 0 0 0 0.5 0"/>
<feBlend mode="normal" in2="BackgroundImageFix" result="effect1_dropShadow_212_2037"/>
<feBlend mode="normal" in="SourceGraphic" in2="effect1_dropShadow_212_2037" result="shape"/>
</filter>
<linearGradient id="paint0_linear_212_2037" x1="76.5" y1="46" x2="24.5" y2="46" gradientUnits="userSpaceOnUse">
<stop stop-color="#DC349E"/>
<stop offset="1" stop-color="#31D0D0"/>
</linearGradient>
<clipPath id="clip0_212_2037">
<rect width="28" height="28" fill="white" transform="translate(36.5 32)"/>
</clipPath>
</defs>
</svg>
