<svg width="28" height="28" viewBox="0 0 28 28" fill="none" xmlns="http://www.w3.org/2000/svg">
<path d="M11.7789 2.63574H3.51099C3.02799 2.63574 2.63599 3.02774 2.63599 3.51074V14.9317C2.63599 15.4147 3.02799 15.8067 3.51099 15.8067H11.7784C12.2614 15.8067 12.6534 15.4147 12.6534 14.9317V3.51074C12.6539 3.02774 12.2619 2.63574 11.7789 2.63574Z" fill="white"/>
<path d="M11.7789 18.5H3.51099C3.02799 18.5 2.63599 18.892 2.63599 19.375V24.5432C2.63599 25.0262 3.02799 25.4182 3.51099 25.4182H11.7784C12.2614 25.4182 12.6534 25.0262 12.6534 24.5432V19.375C12.6539 18.892 12.2619 18.5 11.7789 18.5Z" fill="white"/>
<path d="M24.5442 12.248H16.2764C15.7934 12.248 15.4014 12.64 15.4014 13.123V24.544C15.4014 25.027 15.7934 25.419 16.2764 25.419H24.5438C25.0268 25.419 25.4188 25.027 25.4188 24.544V13.123C25.4192 12.64 25.0272 12.248 24.5442 12.248Z" fill="white"/>
<path d="M24.5442 2.63574H16.2764C15.7934 2.63574 15.4014 3.02774 15.4014 3.51074V8.6273C15.4014 9.1103 15.7934 9.5023 16.2764 9.5023H24.5438C25.0268 9.5023 25.4188 9.1103 25.4188 8.6273V3.51074C25.4192 3.02774 25.0272 2.63574 24.5442 2.63574Z" fill="white"/>
</svg>
