<svg width="28" height="28" viewBox="0 0 28 28" fill="none" xmlns="http://www.w3.org/2000/svg">
<g clip-path="url(#clip0_359_1149)">
<path fill-rule="evenodd" clip-rule="evenodd" d="M20.7129 3.56204L15.1321 8.32294L15.1325 8.32261L15.0745 8.25534C14.3043 7.36089 14.4083 6.01076 15.3064 5.24456L19.2266 1.9004C20.1847 1.08317 20.8601 0.659638 22.0435 0.389215C25.5219 -0.167538 27.035 3.26445 27.035 3.26445L24.9409 5.05069C24.919 4.09262 23.7638 3.20115 23.7638 3.20115C22.4683 2.14895 20.7129 3.56204 20.7129 3.56204ZM25.1518 9.07238L25.1557 9.06891C28.1336 6.52376 27.4105 4.27421 27.3949 4.22682C27.3946 4.22649 27.3946 4.22616 27.3946 4.22616L14.9237 14.8409L20.364 21.2041C21.4128 20.3004 21.5345 18.719 20.6357 17.6658L18.295 14.9218L25.148 9.07554L25.1518 9.07238ZM9.24111 2.68037L9.24347 2.68316L15.0788 9.54547L17.8264 7.2091C18.8809 6.31199 20.4624 6.43627 21.3644 7.48648L14.9926 12.9168L4.3974 0.428973H4.39807C4.44546 0.413397 6.69633 -0.306074 9.23651 2.67587L9.23685 2.67554C9.23835 2.67704 9.23971 2.67868 9.24111 2.68037ZM3.72267 7.10901L8.47496 12.6974L8.47463 12.6971L8.40702 12.7551C7.51124 13.5239 6.16112 13.4175 5.39658 12.5185L2.05871 8.59302C1.24314 7.63361 0.8206 6.95789 0.552166 5.7738C0.000715703 2.29475 3.43502 0.78688 3.43502 0.78688L5.21795 2.88332C4.26021 2.90354 3.36675 4.05747 3.36675 4.05747C2.31223 5.35126 3.72267 7.10901 3.72267 7.10901ZM2.82444 18.9268L2.82723 18.9244L9.68026 13.0782L7.33958 10.3342C6.44082 9.281 6.56244 7.69956 7.61133 6.79583L13.0516 13.1591L0.580666 23.7738C0.580666 23.7738 0.580666 23.7735 0.580334 23.7731C0.564758 23.7258 -0.158357 21.4762 2.81961 18.9311C2.82018 18.9305 2.82077 18.9299 2.82137 18.9294C2.82236 18.9285 2.82339 18.9277 2.82444 18.9268ZM7.26203 24.4383L12.8428 19.6774L12.9008 19.7447C13.671 20.6391 13.5669 21.9893 12.6688 22.7555L8.74869 26.0996C7.79061 26.9169 7.11522 27.3404 5.93179 27.6108C2.45308 28.1676 0.939901 24.7359 0.939901 24.7359L3.03402 22.9497C3.05589 23.9077 4.21116 24.7992 4.21116 24.7992C5.5066 25.8514 7.26203 24.4383 7.26203 24.4383ZM18.7384 25.3248C18.7369 25.3233 18.7356 25.3216 18.7342 25.3199L18.7318 25.3171L12.8965 18.4548L10.1489 20.7912C9.09433 21.6883 7.51289 21.564 6.61082 20.5138L12.9827 15.0835L23.5779 27.5713H23.5772C23.5298 27.5869 21.2789 28.3064 18.7388 25.3244L18.7384 25.3248ZM24.2526 20.891L19.5003 15.3026L19.5006 15.3029L19.5682 15.2449C20.464 14.476 21.8142 14.5824 22.5787 15.4815L25.9166 19.407C26.7321 20.3664 27.1547 21.0421 27.4231 22.2262C27.9742 25.7056 24.5403 27.2134 24.5403 27.2134L22.7573 25.1167C23.7151 25.0964 24.6085 23.9425 24.6085 23.9425C25.663 22.6487 24.2526 20.891 24.2526 20.891Z" fill="url(#paint0_linear_359_1149)"/>
</g>
<defs>
<linearGradient id="paint0_linear_359_1149" x1="27.4831" y1="14" x2="0.492188" y2="14" gradientUnits="userSpaceOnUse">
<stop stop-color="#DC349E"/>
<stop offset="1" stop-color="#31D0D0"/>
</linearGradient>
<clipPath id="clip0_359_1149">
<rect width="28" height="28" fill="white"/>
</clipPath>
</defs>
</svg>
