<svg width="204" height="45" viewBox="0 0 204 45" fill="none" xmlns="http://www.w3.org/2000/svg">
<g filter="url(#filter0_b_212_1798)">
<path d="M0.171631 22.4343C0.171631 10.0442 10.2158 0 22.6059 0H181.394C193.784 0 203.828 10.0442 203.828 22.4343C203.828 34.8244 193.784 44.8686 181.394 44.8686H22.6059C10.2158 44.8686 0.171631 34.8244 0.171631 22.4343Z" fill="url(#paint0_linear_212_1798)"/>
<path d="M0.671631 22.4343C0.671631 10.3203 10.4919 0.5 22.6059 0.5H181.394C193.508 0.5 203.328 10.3203 203.328 22.4343C203.328 34.5483 193.508 44.3686 181.394 44.3686H22.6059C10.4919 44.3686 0.671631 34.5483 0.671631 22.4343Z" stroke="url(#paint1_linear_212_1798)"/>
<path d="M161.665 22.5161C160.857 21.9911 159.965 21.6178 159.122 21.1511C158.574 20.8478 157.992 20.5794 157.517 20.1944C156.708 19.5411 156.874 18.2579 157.719 17.6978C158.931 16.9045 160.94 17.3478 161.154 18.9695C161.154 19.0044 161.19 19.0278 161.225 19.0278H163.056C163.104 19.0278 163.14 18.9928 163.128 18.9462C163.033 17.8261 162.592 16.8928 161.784 16.2978C161.011 15.7262 160.132 15.4229 159.192 15.4229C154.354 15.4229 153.914 20.4511 156.517 22.0378C156.815 22.2244 159.37 23.4844 160.275 24.0327C161.178 24.581 161.463 25.5844 161.071 26.3777C160.714 27.101 159.787 27.6027 158.86 27.5443C157.849 27.486 157.065 26.9494 156.791 26.1094C156.743 25.9577 156.72 25.666 156.72 25.5377C156.72 25.5027 156.684 25.4677 156.648 25.4677H154.663C154.628 25.4677 154.592 25.5027 154.592 25.5377C154.592 26.9494 154.949 27.731 155.923 28.4427C156.839 29.1193 157.837 29.3993 158.872 29.3993C161.582 29.3993 162.985 27.8943 163.27 26.331C163.519 24.8027 163.056 23.4261 161.665 22.5161Z" fill="white"/>
<path d="M75.4674 15.6797H74.5877H73.6248C73.5891 15.6797 73.5653 15.703 73.5534 15.7264L71.9249 20.9996C71.9011 21.0697 71.806 21.0697 71.7822 20.9996L70.1536 15.7264C70.1417 15.6913 70.1179 15.6797 70.0822 15.6797H69.1194H68.2396H67.0509C67.0152 15.6797 66.9795 15.7147 66.9795 15.7497V29.2129C66.9795 29.2478 67.0152 29.2828 67.0509 29.2828H69.0361C69.0718 29.2828 69.1075 29.2478 69.1075 29.2129V18.9813C69.1075 18.8996 69.2263 18.888 69.2501 18.958L70.8906 24.2663L71.0094 24.6395C71.0213 24.6746 71.0451 24.6863 71.0808 24.6863H72.6025C72.6381 24.6863 72.6619 24.6629 72.6738 24.6395L72.7926 24.2663L74.4331 18.958C74.4569 18.8763 74.5758 18.8996 74.5758 18.9813V29.2129C74.5758 29.2478 74.6115 29.2828 74.6471 29.2828H76.6324C76.668 29.2828 76.7037 29.2478 76.7037 29.2129V15.7497C76.7037 15.7147 76.668 15.6797 76.6324 15.6797H75.4674Z" fill="white"/>
<path d="M131.268 15.6797C131.232 15.6797 131.209 15.703 131.197 15.7264L129.569 20.9996C129.545 21.0697 129.45 21.0697 129.426 20.9996L127.797 15.7264C127.785 15.6913 127.762 15.6797 127.726 15.6797H124.706C124.67 15.6797 124.635 15.7147 124.635 15.7497V29.2129C124.635 29.2478 124.67 29.2828 124.706 29.2828H126.692C126.728 29.2828 126.763 29.2478 126.763 29.2129V18.9813C126.763 18.8996 126.882 18.888 126.906 18.958L128.546 24.2663L128.665 24.6395C128.677 24.6746 128.7 24.6863 128.736 24.6863H130.258C130.294 24.6863 130.317 24.6629 130.329 24.6395L130.448 24.2663L132.089 18.958C132.113 18.8763 132.232 18.8996 132.232 18.9813V29.2129C132.232 29.2478 132.267 29.2828 132.303 29.2828H134.288C134.323 29.2828 134.359 29.2478 134.359 29.2129V15.7497C134.359 15.7147 134.323 15.6797 134.288 15.6797H131.268Z" fill="white"/>
<path d="M105.662 15.6797H101.965H99.9796H96.2826C96.2469 15.6797 96.2112 15.7147 96.2112 15.7497V17.4296C96.2112 17.4647 96.2469 17.4997 96.2826 17.4997H99.9083V29.2129C99.9083 29.2478 99.9439 29.2828 99.9796 29.2828H101.965C102.001 29.2828 102.036 29.2478 102.036 29.2129V17.4997H105.662C105.698 17.4997 105.733 17.4647 105.733 17.4296V15.7497C105.733 15.7147 105.71 15.6797 105.662 15.6797Z" fill="white"/>
<path d="M117.372 29.2826H119.178C119.226 29.2826 119.261 29.236 119.25 29.1893L115.517 15.6795C115.505 15.6445 115.481 15.6328 115.446 15.6328H114.756H113.544H112.854C112.819 15.6328 112.795 15.6561 112.783 15.6795L109.05 29.1893C109.038 29.236 109.074 29.2826 109.122 29.2826H110.928C110.964 29.2826 110.988 29.2593 111 29.236L112.082 25.3043C112.093 25.2694 112.117 25.2577 112.153 25.2577H116.147C116.183 25.2577 116.207 25.281 116.219 25.3043L117.3 29.236C117.312 29.2593 117.348 29.2826 117.372 29.2826ZM112.628 23.3327L114.079 18.0711C114.102 18.0011 114.198 18.0011 114.221 18.0711L115.672 23.3327C115.684 23.3794 115.648 23.426 115.6 23.426H112.7C112.652 23.426 112.617 23.3794 112.628 23.3327Z" fill="white"/>
<path d="M148.185 29.2826H149.991C150.039 29.2826 150.074 29.236 150.062 29.1893L146.33 15.6795C146.318 15.6445 146.294 15.6328 146.259 15.6328H145.569H144.357H143.667C143.631 15.6328 143.608 15.6561 143.596 15.6795L139.863 29.1893C139.851 29.236 139.887 29.2826 139.935 29.2826H141.742C141.777 29.2826 141.801 29.2593 141.813 29.236L142.895 25.3043C142.907 25.2694 142.93 25.2577 142.966 25.2577H146.96C146.996 25.2577 147.02 25.281 147.032 25.3043L148.113 29.236C148.125 29.2593 148.149 29.2826 148.185 29.2826ZM143.441 23.3327L144.891 18.0711C144.915 18.0011 145.01 18.0011 145.034 18.0711L146.485 23.3327C146.496 23.3794 146.461 23.426 146.413 23.426H143.512C143.465 23.426 143.429 23.3794 143.441 23.3327Z" fill="white"/>
<path d="M84.7636 27.2869V23.1103C84.7636 23.0754 84.7993 23.0403 84.835 23.0403H90.125C90.1607 23.0403 90.1964 23.0053 90.1964 22.9703V21.2903C90.1964 21.2554 90.1607 21.2204 90.125 21.2204H84.835C84.7993 21.2204 84.7636 21.1854 84.7636 21.1503V17.5804C84.7636 17.5454 84.7993 17.5104 84.835 17.5104H90.8502C90.8859 17.5104 90.9216 17.4754 90.9216 17.4404V15.7604C90.9216 15.7254 90.8859 15.6904 90.8502 15.6904H84.7636H82.7071C82.6714 15.6904 82.6357 15.7254 82.6357 15.7604V17.5104V21.232V23.052V27.3686V29.2119C82.6357 29.2469 82.6714 29.2819 82.7071 29.2819H84.7636H91.0998C91.1355 29.2819 91.1712 29.2469 91.1712 29.2119V27.4386C91.1712 27.4036 91.1355 27.3686 91.0998 27.3686H84.8231C84.7874 27.357 84.7636 27.3336 84.7636 27.2869Z" fill="white"/>
<path d="M179.806 29.1653L172.935 22.2003C172.911 22.177 172.911 22.1304 172.935 22.107L179.117 15.8071C179.164 15.7604 179.129 15.6904 179.069 15.6904H176.537C176.513 15.6904 176.501 15.7021 176.49 15.7138L171.247 21.0571C171.2 21.1037 171.128 21.0687 171.128 21.0103V15.7604C171.128 15.7254 171.093 15.6904 171.057 15.6904H169.071C169.035 15.6904 169 15.7254 169 15.7604V29.2236C169 29.2586 169.035 29.2936 169.071 29.2936H171.057C171.093 29.2936 171.128 29.2586 171.128 29.2236V23.297C171.128 23.2387 171.211 23.2037 171.247 23.2503L177.19 29.2702C177.202 29.2819 177.226 29.2936 177.238 29.2936H179.77C179.818 29.2819 179.853 29.2003 179.806 29.1653Z" fill="white"/>
<path d="M53.4155 8.43457L41.397 17.1844L43.6319 12.0279L53.4155 8.43457Z" fill="#E17726" stroke="#E17726" stroke-width="0.310606" stroke-linecap="round" stroke-linejoin="round"/>
<path d="M25.6929 8.43457L37.6044 17.2661L35.4765 12.0279L25.6929 8.43457Z" fill="#E27625" stroke="#E27625" stroke-width="0.310606" stroke-linecap="round" stroke-linejoin="round"/>
<path d="M49.0879 28.7227L45.8901 33.5293L52.7375 35.3843L54.699 28.8277L49.0879 28.7227Z" fill="#E27625" stroke="#E27625" stroke-width="0.310606" stroke-linecap="round" stroke-linejoin="round"/>
<path d="M24.4214 28.8277L26.371 35.3843L33.2065 33.5293L30.0205 28.7227L24.4214 28.8277Z" fill="#E27625" stroke="#E27625" stroke-width="0.310606" stroke-linecap="round" stroke-linejoin="round"/>
<path d="M32.8378 20.6029L30.9358 23.4263L37.7118 23.7296L37.486 16.5547L32.8378 20.6029Z" fill="#E27625" stroke="#E27625" stroke-width="0.310606" stroke-linecap="round" stroke-linejoin="round"/>
<path d="M46.2709 20.6036L41.5515 16.4736L41.397 23.7302L48.1729 23.4269L46.2709 20.6036Z" fill="#E27625" stroke="#E27625" stroke-width="0.310606" stroke-linecap="round" stroke-linejoin="round"/>
<path d="M33.2065 33.5289L37.3078 31.5807L33.7772 28.874L33.2065 33.5289Z" fill="#E27625" stroke="#E27625" stroke-width="0.310606" stroke-linecap="round" stroke-linejoin="round"/>
<path d="M41.8013 31.5807L45.8906 33.5289L45.3319 28.874L41.8013 31.5807Z" fill="#E27625" stroke="#E27625" stroke-width="0.310606" stroke-linecap="round" stroke-linejoin="round"/>
<path d="M45.8906 33.5303L41.8013 31.582L42.1341 34.1953L42.0984 35.3036L45.8906 33.5303Z" fill="#D5BFB2" stroke="#D5BFB2" stroke-width="0.310606" stroke-linecap="round" stroke-linejoin="round"/>
<path d="M33.2065 33.5303L37.0106 35.3036L36.9869 34.1953L37.3078 31.582L33.2065 33.5303Z" fill="#D5BFB2" stroke="#D5BFB2" stroke-width="0.310606" stroke-linecap="round" stroke-linejoin="round"/>
<path d="M37.0816 27.148L33.6816 26.168L36.083 25.083L37.0816 27.148Z" fill="#233447" stroke="#233447" stroke-width="0.310606" stroke-linecap="round" stroke-linejoin="round"/>
<path d="M42.0269 27.148L43.0255 25.083L45.4387 26.168L42.0269 27.148Z" fill="#233447" stroke="#233447" stroke-width="0.310606" stroke-linecap="round" stroke-linejoin="round"/>
<path d="M33.2062 33.5293L33.8006 28.7227L30.0203 28.8277L33.2062 33.5293Z" fill="#CC6228" stroke="#CC6228" stroke-width="0.310606" stroke-linecap="round" stroke-linejoin="round"/>
<path d="M45.3079 28.7227L45.8904 33.5293L49.0882 28.8277L45.3079 28.7227Z" fill="#CC6228" stroke="#CC6228" stroke-width="0.310606" stroke-linecap="round" stroke-linejoin="round"/>
<path d="M48.1729 23.4258L41.397 23.7291L42.027 27.1475L43.0256 25.0824L45.4388 26.1674L48.1729 23.4258Z" fill="#CC6228" stroke="#CC6228" stroke-width="0.310606" stroke-linecap="round" stroke-linejoin="round"/>
<path d="M33.6819 26.1674L36.0832 25.0824L37.0818 27.1475L37.7118 23.7291L30.9358 23.4258L33.6819 26.1674Z" fill="#CC6228" stroke="#CC6228" stroke-width="0.310606" stroke-linecap="round" stroke-linejoin="round"/>
<path d="M30.9358 23.4258L33.777 28.8741L33.6818 26.1674L30.9358 23.4258Z" fill="#E27525" stroke="#E27525" stroke-width="0.310606" stroke-linecap="round" stroke-linejoin="round"/>
<path d="M45.439 26.1674L45.332 28.8741L48.1732 23.4258L45.439 26.1674Z" fill="#E27525" stroke="#E27525" stroke-width="0.310606" stroke-linecap="round" stroke-linejoin="round"/>
<path d="M37.7119 23.7295L37.0818 27.1479L37.8783 31.1844L38.0566 25.8645L37.7119 23.7295Z" fill="#E27525" stroke="#E27525" stroke-width="0.310606" stroke-linecap="round" stroke-linejoin="round"/>
<path d="M41.3971 23.7295L41.0642 25.8529L41.2307 31.1844L42.0271 27.1479L41.3971 23.7295Z" fill="#E27525" stroke="#E27525" stroke-width="0.310606" stroke-linecap="round" stroke-linejoin="round"/>
<path d="M42.0269 27.148L41.2305 31.1845L41.8011 31.5812L45.3318 28.8746L45.4388 26.168L42.0269 27.148Z" fill="#F5841F" stroke="#F5841F" stroke-width="0.310606" stroke-linecap="round" stroke-linejoin="round"/>
<path d="M33.6816 26.168L33.7768 28.8746L37.3074 31.5812L37.878 31.1845L37.0816 27.148L33.6816 26.168Z" fill="#F5841F" stroke="#F5841F" stroke-width="0.310606" stroke-linecap="round" stroke-linejoin="round"/>
<path d="M42.0986 35.3026L42.1342 34.1943L41.8252 33.9376H37.2841L36.9869 34.1943L37.0106 35.3026L33.2065 33.5293L34.538 34.6026L37.2365 36.4343H41.8608L44.5712 34.6026L45.8907 33.5293L42.0986 35.3026Z" fill="#C0AC9D" stroke="#C0AC9D" stroke-width="0.310606" stroke-linecap="round" stroke-linejoin="round"/>
<path d="M41.8011 31.5802L41.2305 31.1836H37.8781L37.3076 31.5802L36.9866 34.1936L37.2838 33.9369H41.8249L42.134 34.1936L41.8011 31.5802Z" fill="white" stroke="white" stroke-width="0.310606" stroke-linecap="round" stroke-linejoin="round"/>
<path d="M53.9267 17.7561L54.9372 12.9262L53.4155 8.43457L41.8013 16.8928L46.271 20.6027L52.5834 22.4111L53.9743 20.8128L53.368 20.3811L54.3309 19.5178L53.5939 18.9578L54.5568 18.2344L53.9267 17.7561Z" fill="#763E1A" stroke="#763E1A" stroke-width="0.310606" stroke-linecap="round" stroke-linejoin="round"/>
<path d="M24.1716 12.9262L25.194 17.7561L24.5402 18.2344L25.5149 18.9578L24.7779 19.5178L25.7408 20.3811L25.1345 20.8128L26.5254 22.4111L32.8378 20.6027L37.3076 16.8928L25.6933 8.43457L24.1716 12.9262Z" fill="#763E1A" stroke="#763E1A" stroke-width="0.310606" stroke-linecap="round" stroke-linejoin="round"/>
<path d="M52.5835 22.4108L46.2712 20.6025L48.1732 23.4259L45.332 28.8741L49.0886 28.8274H54.6995L52.5835 22.4108Z" fill="#F5841F" stroke="#F5841F" stroke-width="0.310606" stroke-linecap="round" stroke-linejoin="round"/>
<path d="M32.8379 20.6025L26.5255 22.4108L24.4214 28.8274H30.0205L33.777 28.8741L30.9359 23.4259L32.8379 20.6025Z" fill="#F5841F" stroke="#F5841F" stroke-width="0.310606" stroke-linecap="round" stroke-linejoin="round"/>
<path d="M41.3969 23.7298L41.8011 16.8932L43.6318 12.0283H35.4768L37.3075 16.8932L37.7117 23.7298L37.8662 25.8765L37.8781 31.1847H41.2305L41.2424 25.8765L41.3969 23.7298Z" fill="#F5841F" stroke="#F5841F" stroke-width="0.310606" stroke-linecap="round" stroke-linejoin="round"/>
</g>
<defs>
<filter id="filter0_b_212_1798" x="-39.8284" y="-40" width="283.656" height="124.868" filterUnits="userSpaceOnUse" color-interpolation-filters="sRGB">
<feFlood flood-opacity="0" result="BackgroundImageFix"/>
<feGaussianBlur in="BackgroundImageFix" stdDeviation="20"/>
<feComposite in2="SourceAlpha" operator="in" result="effect1_backgroundBlur_212_1798"/>
<feBlend mode="normal" in="SourceGraphic" in2="effect1_backgroundBlur_212_1798" result="shape"/>
</filter>
<linearGradient id="paint0_linear_212_1798" x1="105.133" y1="4.9854" x2="105.133" y2="44.8686" gradientUnits="userSpaceOnUse">
<stop stop-color="white" stop-opacity="0.05"/>
<stop offset="1" stop-color="white" stop-opacity="0.02"/>
</linearGradient>
<linearGradient id="paint1_linear_212_1798" x1="92.7699" y1="3.22783e-06" x2="92.7699" y2="44.8686" gradientUnits="userSpaceOnUse">
<stop stop-color="white" stop-opacity="0.05"/>
<stop offset="1" stop-color="white" stop-opacity="0.01"/>
</linearGradient>
</defs>
</svg>
