<svg width="101" height="100" viewBox="0 0 101 100" fill="none" xmlns="http://www.w3.org/2000/svg">
<g filter="url(#filter0_d_212_2043)">
<rect x="24.5" y="20" width="52" height="52" rx="26" fill="url(#paint0_linear_212_2043)" shape-rendering="crispEdges"/>
<path d="M39.3224 51.3232H37.4894C37.2441 51.3232 37.0452 51.5222 37.0452 51.7675V58.7231C37.0452 58.9685 37.2441 59.1674 37.4894 59.1674H39.3224C39.5677 59.1674 39.7666 58.9685 39.7666 58.7231V51.7675C39.7666 51.5222 39.5677 51.3232 39.3224 51.3232Z" fill="white"/>
<path d="M63.8479 53.7497L63.1814 53.2685C63.0149 53.1497 62.8294 53.0603 62.6328 53.0042C62.4277 52.9459 62.2137 52.9252 62.0012 52.9432C62.3232 52.4331 62.5827 51.9787 62.7264 51.6909C62.7811 51.5855 62.8095 51.4685 62.8092 51.3499C62.8089 51.2312 62.78 51.1143 62.7249 51.0092C62.6997 50.963 62.6704 50.919 62.6374 50.878C62.5582 50.7787 62.4601 50.6961 62.3488 50.6352C62.2374 50.5742 62.115 50.5359 61.9888 50.5227C61.6828 50.4914 61.3768 50.5807 61.1356 50.7715L55.8692 55.3099C55.5422 55.3264 55.2144 55.3098 54.8908 55.2602C54.833 55.2534 48.8393 54.4471 48.8393 54.4471C48.7671 54.4373 48.6975 54.4135 48.6345 54.3768C48.5715 54.3401 48.5164 54.2914 48.4723 54.2335C48.4281 54.1755 48.3958 54.1094 48.3772 54.039C48.3586 53.9685 48.354 53.8951 48.3638 53.8229C48.3736 53.7507 48.3975 53.6811 48.4341 53.6182C48.4708 53.5552 48.5195 53.5001 48.5774 53.4559C48.6354 53.4118 48.7015 53.3795 48.7719 53.3608C48.8424 53.3422 48.9158 53.3377 48.988 53.3475L50.3289 53.5264C50.8661 53.5982 51.4126 53.5124 51.9019 53.2793C52.3912 53.0463 52.8023 52.6762 53.0852 52.2139C53.1103 52.1749 53.1249 52.13 53.1276 52.0837C53.1304 52.0374 53.1211 51.9911 53.1007 51.9494C53.0819 51.9075 53.0529 51.871 53.0165 51.8431C52.98 51.8152 52.9372 51.7968 52.8918 51.7895L45.8091 50.6485C45.3805 50.5793 44.9411 50.6285 44.5384 50.7907L40.8772 52.2657V57.9239L48.5859 59.4989C49.2285 59.6325 49.8918 59.6318 50.5341 59.4967C54.6263 58.6036 58.9715 56.8665 63.8212 54.1851C63.8601 54.1654 63.893 54.1356 63.9165 54.0988C63.9399 54.0621 63.953 54.0197 63.9544 53.9761C63.9574 53.9325 63.9491 53.8888 63.9305 53.8492C63.9118 53.8095 63.8834 53.7753 63.8479 53.7497Z" fill="white"/>
<path d="M46.0812 43.0104L48.7302 48.4179H49.8437V44.7317C49.4709 44.5796 49.1626 44.3027 48.9714 43.9484C48.7802 43.594 48.718 43.1843 48.7955 42.7892C48.8731 42.3941 49.0854 42.0382 49.3963 41.7824C49.7072 41.5266 50.0973 41.3867 50.4999 41.3867C50.9025 41.3867 51.2927 41.5266 51.6035 41.7824C51.9144 42.0382 52.1268 42.3941 52.2043 42.7892C52.2818 43.1843 52.2197 43.594 52.0285 43.9484C51.8373 44.3027 51.5289 44.5796 51.1562 44.7317V48.4177H52.2696L54.9165 43.0102C55.205 42.2883 55.3122 41.5068 55.2287 40.734C55.1453 39.9612 54.8737 39.2206 54.4378 38.577C54.002 37.9333 53.415 37.4063 52.7283 37.0421C52.0416 36.6778 51.2762 36.4873 50.4988 36.4873C49.7215 36.4873 48.956 36.6778 48.2693 37.0421C47.5827 37.4063 46.9957 37.9333 46.5598 38.577C46.1239 39.2206 45.8524 39.9612 45.7689 40.734C45.6855 41.5068 45.7927 42.2886 46.0812 43.0104Z" fill="white"/>
<path d="M50.5 35.5017C50.6072 35.5017 50.7133 35.4806 50.8123 35.4396C50.9113 35.3986 51.0013 35.3385 51.0771 35.2627C51.1529 35.1869 51.213 35.0969 51.254 34.9979C51.295 34.8989 51.3162 34.7927 51.3162 34.6856V33.2175C51.3162 33.0011 51.2302 32.7935 51.0771 32.6404C50.924 32.4874 50.7165 32.4014 50.5 32.4014C50.2835 32.4014 50.0759 32.4874 49.9229 32.6404C49.7698 32.7935 49.6838 33.0011 49.6838 33.2175V34.6856C49.6838 34.7927 49.7049 34.8989 49.746 34.9979C49.787 35.0969 49.8471 35.1869 49.9229 35.2627C50.0759 35.4157 50.2835 35.5017 50.5 35.5017Z" fill="white"/>
<path d="M56.083 37.336L57.1212 36.2981C57.1985 36.2226 57.2602 36.1326 57.3025 36.0332C57.3448 35.9337 57.3669 35.8269 57.3676 35.7188C57.3683 35.6108 57.3475 35.5037 57.3065 35.4037C57.2655 35.3037 57.205 35.2129 57.1286 35.1365C57.0522 35.0601 56.9613 34.9996 56.8614 34.9586C56.7614 34.9176 56.6543 34.8968 56.5463 34.8975C56.4382 34.8982 56.3314 34.9203 56.2319 34.9626C56.1325 35.0049 56.0425 35.0666 55.967 35.1439L54.9288 36.1821C54.8515 36.2575 54.7898 36.3476 54.7475 36.447C54.7052 36.5464 54.6831 36.6533 54.6824 36.7613C54.6817 36.8694 54.7025 36.9765 54.7435 37.0765C54.7845 37.1764 54.845 37.2673 54.9214 37.3437C54.9978 37.4201 55.0886 37.4805 55.1886 37.5216C55.2886 37.5626 55.3957 37.5834 55.5037 37.5827C55.6118 37.582 55.7186 37.5599 55.8181 37.5176C55.9175 37.4752 56.0075 37.4136 56.083 37.3362V37.336Z" fill="white"/>
<path d="M44.917 46.1935L43.8788 47.2317C43.8014 47.3071 43.7398 47.3972 43.6975 47.4966C43.6552 47.596 43.633 47.7029 43.6323 47.8109C43.6317 47.919 43.6524 48.0261 43.6935 48.1261C43.7345 48.226 43.795 48.3168 43.8714 48.3932C43.9478 48.4697 44.0386 48.5301 44.1386 48.5712C44.2385 48.6122 44.3456 48.633 44.4537 48.6323C44.5617 48.6316 44.6686 48.6094 44.768 48.5671C44.8675 48.5248 44.9575 48.4632 45.0329 48.3858L46.0711 47.3479C46.1485 47.2724 46.2101 47.1824 46.2524 47.083C46.2947 46.9835 46.3169 46.8767 46.3176 46.7686C46.3182 46.6606 46.2975 46.5535 46.2564 46.4535C46.2154 46.3535 46.1549 46.2627 46.0785 46.1863C46.0021 46.1099 45.9113 46.0494 45.8113 46.0084C45.7114 45.9674 45.6043 45.9466 45.4962 45.9473C45.3881 45.948 45.2813 45.9701 45.1819 46.0124C45.0824 46.0547 44.9924 46.1161 44.917 46.1935Z" fill="white"/>
<path d="M56.7632 41.7653C56.7632 41.8724 56.7843 41.9786 56.8253 42.0776C56.8663 42.1766 56.9264 42.2666 57.0022 42.3424C57.078 42.4182 57.168 42.4783 57.267 42.5193C57.366 42.5603 57.4722 42.5814 57.5793 42.5814H59.0474C59.1557 42.5832 59.2632 42.5634 59.3638 42.5232C59.4643 42.483 59.5559 42.4231 59.6331 42.3472C59.7103 42.2712 59.7716 42.1807 59.8135 42.0808C59.8553 41.9809 59.8769 41.8737 59.8769 41.7654C59.8769 41.6571 59.8553 41.5499 59.8135 41.45C59.7716 41.3501 59.7103 41.2595 59.6331 41.1836C59.5559 41.1076 59.4643 41.0478 59.3638 41.0076C59.2632 40.9674 59.1557 40.9476 59.0474 40.9493H57.5793C57.3629 40.9493 57.1554 41.0353 57.0023 41.1883C56.8493 41.3413 56.7632 41.5488 56.7632 41.7653Z" fill="white"/>
<path d="M41.9526 42.5814H43.4206C43.5289 42.5832 43.6364 42.5634 43.737 42.5232C43.8376 42.483 43.9291 42.4231 44.0063 42.3472C44.0835 42.2712 44.1448 42.1807 44.1867 42.0808C44.2286 41.9809 44.2501 41.8737 44.2501 41.7654C44.2501 41.6571 44.2286 41.5499 44.1867 41.45C44.1448 41.3501 44.0835 41.2595 44.0063 41.1836C43.9291 41.1076 43.8376 41.0478 43.737 41.0076C43.6364 40.9674 43.5289 40.9476 43.4206 40.9493H41.9526C41.8443 40.9476 41.7367 40.9674 41.6362 41.0076C41.5356 41.0478 41.444 41.1076 41.3668 41.1836C41.2896 41.2595 41.2283 41.3501 41.1865 41.45C41.1446 41.5499 41.123 41.6571 41.123 41.7654C41.123 41.8737 41.1446 41.9809 41.1865 42.0808C41.2283 42.1807 41.2896 42.2712 41.3668 42.3472C41.444 42.4231 41.5356 42.483 41.6362 42.5232C41.7367 42.5634 41.8443 42.5832 41.9526 42.5814Z" fill="white"/>
<path d="M54.9287 46.1942C54.7757 46.3472 54.6897 46.5548 54.6897 46.7713C54.6897 46.9877 54.7757 47.1953 54.9287 47.3483L55.9669 48.3863C56.0423 48.4637 56.1323 48.5253 56.2318 48.5676C56.3312 48.6099 56.4381 48.632 56.5461 48.6327C56.6542 48.6334 56.7613 48.6126 56.8612 48.5716C56.9612 48.5306 57.052 48.4701 57.1284 48.3937C57.2048 48.3173 57.2653 48.2265 57.3063 48.1265C57.3474 48.0265 57.3682 47.9194 57.3675 47.8114C57.3668 47.7033 57.3446 47.5965 57.3023 47.4971C57.26 47.3976 57.1984 47.3076 57.121 47.2322L56.0828 46.194C55.9297 46.041 55.7222 45.955 55.5057 45.9551C55.2893 45.9551 55.0817 46.0411 54.9287 46.1942Z" fill="white"/>
<path d="M44.917 37.3362C44.9924 37.4136 45.0824 37.4752 45.1819 37.5176C45.2813 37.5599 45.3881 37.582 45.4962 37.5827C45.6043 37.5834 45.7114 37.5626 45.8113 37.5216C45.9113 37.4805 46.0021 37.4201 46.0785 37.3437C46.1549 37.2673 46.2154 37.1764 46.2564 37.0765C46.2975 36.9765 46.3182 36.8694 46.3176 36.7613C46.3169 36.6533 46.2947 36.5464 46.2524 36.447C46.2101 36.3476 46.1485 36.2575 46.0711 36.1821L45.0329 35.1439C44.9575 35.0666 44.8675 35.0049 44.768 34.9626C44.6686 34.9203 44.5617 34.8982 44.4537 34.8975C44.3456 34.8968 44.2385 34.9176 44.1386 34.9586C44.0386 34.9996 43.9478 35.0601 43.8714 35.1365C43.795 35.2129 43.7345 35.3037 43.6935 35.4037C43.6524 35.5037 43.6317 35.6108 43.6323 35.7188C43.633 35.8269 43.6552 35.9337 43.6975 36.0332C43.7398 36.1326 43.8014 36.2226 43.8788 36.2981L44.917 37.3362Z" fill="white"/>
</g>
<defs>
<filter id="filter0_d_212_2043" x="0.5" y="0" width="100" height="100" filterUnits="userSpaceOnUse" color-interpolation-filters="sRGB">
<feFlood flood-opacity="0" result="BackgroundImageFix"/>
<feColorMatrix in="SourceAlpha" type="matrix" values="0 0 0 0 0 0 0 0 0 0 0 0 0 0 0 0 0 0 127 0" result="hardAlpha"/>
<feOffset dy="4"/>
<feGaussianBlur stdDeviation="12"/>
<feComposite in2="hardAlpha" operator="out"/>
<feColorMatrix type="matrix" values="0 0 0 0 0.862745 0 0 0 0 0.203922 0 0 0 0 0.619608 0 0 0 0.5 0"/>
<feBlend mode="normal" in2="BackgroundImageFix" result="effect1_dropShadow_212_2043"/>
<feBlend mode="normal" in="SourceGraphic" in2="effect1_dropShadow_212_2043" result="shape"/>
</filter>
<linearGradient id="paint0_linear_212_2043" x1="76.5" y1="46" x2="24.5" y2="46" gradientUnits="userSpaceOnUse">
<stop stop-color="#DC349E"/>
<stop offset="1" stop-color="#31D0D0"/>
</linearGradient>
</defs>
</svg>
