<svg width="101" height="100" viewBox="0 0 101 100" fill="none" xmlns="http://www.w3.org/2000/svg">
<g filter="url(#filter0_d_212_2049)">
<rect x="24.5" y="20" width="52" height="52" rx="26" fill="url(#paint0_linear_212_2049)" shape-rendering="crispEdges"/>
<g clip-path="url(#clip0_212_2049)">
<path d="M62.8761 51.0888C62.7019 50.439 62.2852 49.8958 61.7026 49.5595C61.5625 49.4786 61.4154 49.4117 61.2635 49.3594V42.6406C61.4154 42.5883 61.5624 42.5214 61.7025 42.4405C62.2852 42.1042 62.7019 41.5611 62.876 40.9112C63.0501 40.2614 62.9608 39.5827 62.6244 39C62.1758 38.2231 61.3394 37.7404 60.4416 37.7404C60.0015 37.7404 59.5666 37.8572 59.1839 38.0782C59.0426 38.1597 58.9111 38.2535 58.7904 38.3579L52.9727 34.999C53.0029 34.8435 53.0187 34.6829 53.0187 34.5186C53.0187 33.1298 51.8889 32 50.5001 32C49.1113 32 47.9814 33.1298 47.9814 34.5186C47.9814 34.6829 47.9972 34.8435 48.0274 34.999L42.2096 38.3579C42.0889 38.2534 41.9575 38.1597 41.8162 38.0782C41.4335 37.8572 40.9986 37.7404 40.5584 37.7404C39.6606 37.7404 38.8242 38.2231 38.3756 39C38.0393 39.5827 37.9499 40.2613 38.124 40.9112C38.2981 41.561 38.7149 42.1042 39.2975 42.4405C39.4376 42.5214 39.5847 42.5883 39.7365 42.6406V49.3594C39.5847 49.4117 39.4377 49.4786 39.2976 49.5595C38.7149 49.8958 38.2981 50.4389 38.1241 51.0888C37.9499 51.7386 38.0393 52.4173 38.3757 53C38.8242 53.7769 39.6606 54.2596 40.5584 54.2596C40.9986 54.2596 41.4335 54.1428 41.8162 53.9218C41.9575 53.8403 42.0889 53.7465 42.2096 53.6421L48.0274 57.001C47.9972 57.1565 47.9814 57.3171 47.9814 57.4814C47.9814 58.8702 49.1113 60 50.5001 60C51.8889 60 53.0187 58.8702 53.0187 57.4814C53.0187 57.3171 53.0029 57.1565 52.9727 57.001L58.7905 53.6421C58.9112 53.7466 59.0427 53.8403 59.1839 53.9218C59.5666 54.1428 60.0015 54.2596 60.4417 54.2596C61.3395 54.2596 62.1759 53.7769 62.6245 53C62.9608 52.4174 63.0501 51.7387 62.8761 51.0888ZM50.5001 54.9628C49.869 54.9628 49.2914 55.1961 48.849 55.581L43.0294 52.2211C43.1462 51.6245 43.0449 51.013 42.7381 50.4814C42.4312 49.9498 41.9427 49.556 41.3772 49.3603V42.6398C41.9427 42.444 42.4312 42.0502 42.7381 41.5187C43.0449 40.9872 43.1462 40.3756 43.0294 39.7791L48.849 36.4191C49.2914 36.804 49.869 37.0373 50.5001 37.0373C51.1312 37.0373 51.7087 36.804 52.1511 36.4191L57.9707 39.779C57.8539 40.3756 57.9552 40.9871 58.2621 41.5186C58.569 42.0502 59.0574 42.444 59.6229 42.6397V49.3602C59.0574 49.556 58.569 49.9498 58.2621 50.4813C57.9552 51.0128 57.8539 51.6244 57.9707 52.2209L52.1511 55.5809C51.7087 55.1961 51.1311 54.9628 50.5001 54.9628Z" fill="white"/>
<path d="M44.2725 43.2529V49.6973L49.6799 52.8006V46.3562L44.2725 43.2529Z" fill="white"/>
<path d="M55.9076 41.8318L50.5002 38.7285L45.0928 41.8318L50.5002 44.935L55.9076 41.8318Z" fill="white"/>
<path d="M56.7277 43.2529L51.3203 46.3562V52.8006L56.7277 49.6973V43.2529Z" fill="white"/>
</g>
</g>
<defs>
<filter id="filter0_d_212_2049" x="0.5" y="0" width="100" height="100" filterUnits="userSpaceOnUse" color-interpolation-filters="sRGB">
<feFlood flood-opacity="0" result="BackgroundImageFix"/>
<feColorMatrix in="SourceAlpha" type="matrix" values="0 0 0 0 0 0 0 0 0 0 0 0 0 0 0 0 0 0 127 0" result="hardAlpha"/>
<feOffset dy="4"/>
<feGaussianBlur stdDeviation="12"/>
<feComposite in2="hardAlpha" operator="out"/>
<feColorMatrix type="matrix" values="0 0 0 0 0.862745 0 0 0 0 0.203922 0 0 0 0 0.619608 0 0 0 0.5 0"/>
<feBlend mode="normal" in2="BackgroundImageFix" result="effect1_dropShadow_212_2049"/>
<feBlend mode="normal" in="SourceGraphic" in2="effect1_dropShadow_212_2049" result="shape"/>
</filter>
<linearGradient id="paint0_linear_212_2049" x1="76.5" y1="46" x2="24.5" y2="46" gradientUnits="userSpaceOnUse">
<stop stop-color="#DC349E"/>
<stop offset="1" stop-color="#31D0D0"/>
</linearGradient>
<clipPath id="clip0_212_2049">
<rect width="28" height="28" fill="white" transform="translate(36.5 32)"/>
</clipPath>
</defs>
</svg>
